<?xml version="1.0" standalone="no"?>
<!DOCTYPE svg PUBLIC "-//W3C//DTD SVG 20010904//EN"
 "http://www.w3.org/TR/2001/REC-SVG-20010904/DTD/svg10.dtd">
<svg version="1.0" xmlns="http://www.w3.org/2000/svg"
 width="100.000000pt" height="100.000000pt" viewBox="0 0 100.000000 100.000000"
 preserveAspectRatio="xMidYMid meet">

<g transform="translate(0.000000,100.000000) scale(0.100000,-0.100000)"
fill="#000000" stroke="none">
<path d="M250 875 l0 -45 290 0 290 0 0 -290 0 -290 45 0 46 0 -3 310 c-3 307
-3 310 -26 332 -22 23 -25 23 -332 26 l-310 3 0 -46z"/>
<path d="M113 726 l-28 -24 0 -286 c0 -284 0 -286 23 -308 22 -23 24 -23 308
-23 l286 0 24 28 24 28 0 269 c0 285 -3 309 -47 329 -16 7 -117 11 -293 11
l-269 0 -28 -24z m555 -308 l2 -248 -250 0 -250 0 0 250 0 250 248 -2 247 -3
3 -247z"/>
<path d="M370 520 l0 -60 -60 0 -60 0 0 -45 0 -45 60 0 60 0 0 -60 0 -60 45 0
45 0 0 60 0 60 60 0 60 0 0 45 0 45 -60 0 -60 0 0 60 0 60 -45 0 -45 0 0 -60z"/>
</g>
</svg>
