<?xml version="1.0" encoding="UTF-8"?>
<svg version="1.1" xmlns="http://www.w3.org/2000/svg" width="100" height="100" viewBox="0 0 100 100">
<path d="M0 0 C1.02917542 -0.051492 2.05835083 -0.10298401 3.11871338 -0.15603638 C7.85758153 -0.32619963 12.59588892 -0.45631729 17.33691406 -0.54882812 C19.82038214 -0.61178656 22.3032636 -0.70696924 24.78417969 -0.8359375 C47.26653795 -1.98710638 47.26653795 -1.98710638 56.40597534 4.87350464 C63.08092725 11.04813331 65.6262717 17.19360108 66.36706543 26.20150757 C66.55334083 32.23298575 66.28085584 38.20830309 65.96777344 44.23095703 C65.90453233 46.72557541 65.84848813 49.2203871 65.79980469 51.71533203 C65.68361386 56.25391926 65.55060293 60.78920976 65.32373047 65.32373047 C65.25800339 66.67697418 65.25800339 66.67697418 65.19094849 68.05755615 C64.81607245 70.66680379 64.31995273 72.29816827 62.84277344 74.48095703 C59.56278477 76.81563911 56.52004046 76.73412437 52.57714844 76.73974609 C51.3090332 76.74605042 50.04091797 76.75235474 48.734375 76.7588501 C47.35383973 76.75527019 45.97330573 76.7511682 44.59277344 76.74658203 C43.17317641 76.74792984 41.75357983 76.74987134 40.33398438 76.75238037 C37.36160885 76.75532619 34.3893537 76.75105151 31.41699219 76.74169922 C27.61047789 76.73030491 23.80424565 76.73686729 19.9977417 76.74884415 C17.06719851 76.75607744 14.13672198 76.75376808 11.20617676 76.74858856 C9.80277472 76.74725613 8.3993666 76.74888555 6.99597168 76.75354767 C5.03344847 76.75863674 3.07090399 76.74950251 1.10839844 76.73974609 C-0.56561035 76.73735931 -0.56561035 76.73735931 -2.2734375 76.73492432 C-5.18096289 76.47886664 -6.79069791 76.16544213 -9.15722656 74.48095703 C-11.49190864 71.20096836 -11.4103939 68.15822405 -11.41601562 64.21533203 C-11.42231995 62.9472168 -11.42862427 61.67910156 -11.43511963 60.37255859 C-11.43153972 58.99202332 -11.42743773 57.61148932 -11.42285156 56.23095703 C-11.42419937 54.81136 -11.42614087 53.39176342 -11.4286499 51.97216797 C-11.43159572 48.99979245 -11.42732104 46.02753729 -11.41796875 43.05517578 C-11.40657444 39.24866149 -11.41313682 35.44242925 -11.42511368 31.63592529 C-11.43234697 28.7053821 -11.43003761 25.77490557 -11.42485809 22.84436035 C-11.42352566 21.44095832 -11.42515508 20.0375502 -11.4298172 18.63415527 C-11.43490628 16.67163207 -11.42577205 14.70908759 -11.41601562 12.74658203 C-11.41442444 11.63057617 -11.41283325 10.51457031 -11.41119385 9.36474609 C-11.15513617 6.45722071 -10.84171166 4.84748569 -9.15722656 2.48095703 C-6.17803017 0.46481727 -3.54686336 0.17227124 0 0 Z M-2.15722656 9.48095703 C-2.15722656 14.76095703 -2.15722656 20.04095703 -2.15722656 25.48095703 C11.37277344 25.48095703 24.90277344 25.48095703 38.84277344 25.48095703 C38.84277344 20.20095703 38.84277344 14.92095703 38.84277344 9.48095703 C25.31277344 9.48095703 11.78277344 9.48095703 -2.15722656 9.48095703 Z M17.84277344 46.48095703 C15.22752015 50.53910869 14.14152596 53.6724029 14.84277344 58.48095703 C16.65862587 62.04282142 18.32449967 64.09526492 21.53027344 66.48095703 C26.06912048 67.85117501 29.49837127 67.33104464 33.84277344 65.48095703 C36.46744735 62.85628312 38.79209279 60.32356048 38.89746094 56.49267578 C38.55797249 52.10146649 38.26362274 49.99892541 35.40527344 46.48095703 C29.94851492 42.22202356 23.22138788 41.87071608 17.84277344 46.48095703 Z " fill="currentColor" transform="translate(23.1572265625,11.51904296875)"/>
</svg>
