<?xml version="1.0" encoding="UTF-8"?>
<svg version="1.1" xmlns="http://www.w3.org/2000/svg" width="100" height="100" viewBox="0 0 100 100">
<path d="M0 0 C1.12159012 -0.00960754 2.24318024 -0.01921509 3.39875793 -0.02911377 C4.61125717 -0.03336365 5.82375641 -0.03761353 7.07299805 -0.04199219 C8.31969772 -0.04769226 9.5663974 -0.05339233 10.85087585 -0.05926514 C13.49127858 -0.06871885 16.13156756 -0.07561372 18.77197266 -0.07910156 C21.47523461 -0.08349156 24.17817833 -0.09740285 26.88134766 -0.12011719 C30.77866312 -0.15057798 34.6755768 -0.16114975 38.57299805 -0.16699219 C40.38263786 -0.18551239 40.38263786 -0.18551239 42.22883606 -0.20440674 C52.83554199 -0.1762631 52.83554199 -0.1762631 57.5222168 3.16113281 C59.0030016 6.12270241 58.87535717 8.99619576 59.0847168 12.28613281 C59.16850586 13.56746094 59.25229492 14.84878906 59.33862305 16.16894531 C59.39920898 17.15636719 59.45979492 18.14378906 59.5222168 19.16113281 C59.98595703 18.77779785 60.44969727 18.39446289 60.92749023 17.99951172 C63.03914977 16.25773557 65.15561191 14.5218953 67.2722168 12.78613281 C68.00182617 12.18285156 68.73143555 11.57957031 69.4831543 10.95800781 C70.19213867 10.37792969 70.90112305 9.79785156 71.6315918 9.20019531 C72.28095703 8.66604004 72.93032227 8.13188477 73.59936523 7.58154297 C75.5222168 6.16113281 75.5222168 6.16113281 79.5222168 4.16113281 C79.5222168 21.32113281 79.5222168 38.48113281 79.5222168 56.16113281 C72.85555013 51.16113281 66.18888346 46.16113281 59.5222168 41.16113281 C59.49643555 42.12535156 59.4706543 43.08957031 59.4440918 44.08300781 C59.35901367 45.97792969 59.35901367 45.97792969 59.2722168 47.91113281 C59.22581055 49.16410156 59.1794043 50.41707031 59.1315918 51.70800781 C58.44235177 55.6137013 57.64846434 56.81074233 54.5222168 59.16113281 C51.43134915 60.19142203 49.26913 60.29993484 46.02856445 60.32226562 C44.34133774 60.33667694 44.34133774 60.33667694 42.62002563 60.35137939 C41.40438934 60.35562927 40.18875305 60.35987915 38.9362793 60.36425781 C37.06267227 60.37280792 37.06267227 60.37280792 35.1512146 60.38153076 C32.50661576 60.39098379 29.8621305 60.39787919 27.2175293 60.40136719 C23.83586594 60.40684981 20.45460565 60.43087737 17.07306862 60.45933914 C13.84000283 60.48248973 10.60691637 60.48441666 7.3737793 60.48925781 C6.16219147 60.50160461 4.95060364 60.51395142 3.70230103 60.52667236 C2.57117889 60.52367126 1.44005676 60.52067017 0.2746582 60.51757812 C-0.717789 60.52122375 -1.71023621 60.52486938 -2.73275757 60.52862549 C-6.91578338 59.9686193 -9.53603641 58.1028796 -12.4777832 55.16113281 C-12.74520874 53.04934692 -12.74520874 53.04934692 -12.76831055 50.40771484 C-12.78107025 49.41973907 -12.79382996 48.43176331 -12.80697632 47.41384888 C-12.80920197 46.3430307 -12.81142761 45.27221252 -12.8137207 44.16894531 C-12.8203775 43.07145966 -12.8270343 41.973974 -12.83389282 40.8432312 C-12.84403269 38.51806315 -12.84870943 36.19286592 -12.84838867 33.86767578 C-12.85275704 30.30745477 -12.88905095 26.74847765 -12.92700195 23.18847656 C-12.93287071 20.9319704 -12.93683971 18.67545833 -12.9387207 16.41894531 C-12.95309174 15.3521756 -12.96746277 14.28540588 -12.98226929 13.18630981 C-12.93667773 5.81935623 -12.93667773 5.81935623 -10.63647461 2.52001953 C-7.03702153 0.25417969 -4.15813025 0.02874122 0 0 Z M-3.4777832 10.16113281 C-3.4777832 23.36113281 -3.4777832 36.56113281 -3.4777832 50.16113281 C14.0122168 50.16113281 31.5022168 50.16113281 49.5222168 50.16113281 C49.5222168 36.96113281 49.5222168 23.76113281 49.5222168 10.16113281 C32.0322168 10.16113281 14.5422168 10.16113281 -3.4777832 10.16113281 Z M65.3972168 26.66113281 C64.4484668 27.48613281 63.4997168 28.31113281 62.5222168 29.16113281 C63.76011309 32.87482168 65.37446557 33.93467462 68.5222168 36.16113281 C69.1822168 36.16113281 69.8422168 36.16113281 70.5222168 36.16113281 C70.5222168 32.20113281 70.5222168 28.24113281 70.5222168 24.16113281 C67.93295349 24.16113281 67.32170019 24.98766899 65.3972168 26.66113281 Z " fill="currentColor" transform="translate(16.477783203125,19.8388671875)"/>
</svg>
