<?xml version="1.0" standalone="no"?>
<!DOCTYPE svg PUBLIC "-//W3C//DTD SVG 20010904//EN"
 "http://www.w3.org/TR/2001/REC-SVG-20010904/DTD/svg10.dtd">
<svg version="1.0" xmlns="http://www.w3.org/2000/svg"
 width="100.000000pt" height="100.000000pt" viewBox="0 0 100.000000 100.000000"
 preserveAspectRatio="xMidYMid meet">

<g transform="translate(0.000000,100.000000) scale(0.100000,-0.100000)"
fill="currentColor" stroke="none">
<path d="M120 875 l-24 -25 57 -58 57 -58 -47 -51 c-43 -46 -103 -134 -118
-173 -8 -23 64 -138 128 -203 41 -40 83 -70 135 -95 75 -36 80 -37 192 -37
100 0 122 3 168 24 l53 24 63 -62 62 -61 27 28 27 28 -373 372 c-205 205 -375
372 -378 372 -3 0 -16 -11 -29 -25z m194 -244 c39 -40 39 -40 27 -86 -32 -127
77 -236 204 -204 44 11 47 10 76 -17 16 -15 29 -31 29 -36 0 -4 -26 -15 -57
-24 -78 -23 -173 -14 -250 22 -64 31 -157 117 -188 176 -18 35 -18 39 -3 70
16 34 104 138 117 138 4 0 24 -18 45 -39z m180 -209 c-36 -5 -74 32 -74 72 l0
30 51 -49 c49 -49 50 -50 23 -53z"/>
<path d="M393 823 c-30 -6 -29 -14 5 -46 26 -25 37 -28 113 -31 98 -3 168 -31
242 -96 47 -41 107 -126 107 -151 0 -8 -15 -37 -34 -65 l-35 -51 30 -29 29
-28 18 23 c47 64 92 147 87 161 -17 46 -77 131 -128 183 -41 41 -82 70 -135
95 -71 34 -85 37 -177 38 -55 1 -110 0 -122 -3z"/>
<path d="M585 590 c48 -49 71 -66 73 -55 9 40 -74 125 -122 125 -16 0 -6 -15
49 -70z"/>
</g>
</svg>
