<?xml version="1.0" encoding="UTF-8"?>
<svg xmlns="http://www.w3.org/2000/svg" viewBox="0 0 100 100" width="100" height="100">
<path d="M79.1 4.16C79.1 23.61 79.1 43.06 79.1 62.52C76.38 62.52 73.65 62.52 70.93 62.52C70.93 61.09 70.93 59.67 70.93 58.25C64.24 55.87 56.74 53.01 53.68 45.94C51.09 45.94 48.51 45.94 45.92 45.94C45.92 53.71 45.92 61.48 45.92 69.25C50.92 74.42 55.92 79.58 60.91 84.75C59.03 86.51 57.14 88.26 55.25 90.02C52.14 87.27 49.03 84.53 45.91 81.78C45.91 86.31 45.91 90.84 45.91 95.37C43.56 96.31 39.87 96.26 37.49 95.38C37.49 90.95 37.49 86.52 37.49 82.09C33.44 82.83 31.61 88.59 27.75 89.98C25.97 88.24 24.2 86.49 22.42 84.75C27.44 79.42 32.45 74.08 37.47 68.75C37.47 61.26 37.47 53.76 37.47 46.27C33.98 45.13 30.73 44.45 28.17 41.61C22.86 35.73 24.65 25.64 31.89 22.18C38.45 19.04 46.37 22.07 53.25 20.63C56.43 17.12 59.02 13.43 63.4 11.19C65.81 9.95 68.56 9.53 70.92 8.33C70.92 6.94 70.92 5.55 70.92 4.16C73.65 4.16 76.37 4.16 79.1 4.16ZM70.88 17.75C68.68 17.76 66.94 18.63 65.19 19.95C57.99 25.35 55.99 36.2 61.82 43.39C64.02 46.1 67.26 49.1 70.88 48.78C70.88 38.44 70.88 28.09 70.88 17.75ZM49.93 29.4C47 28.77 37.22 28.36 34.91 30.17C33.91 30.95 33.66 32.09 33.33 33.25C33.68 34.74 34.06 35.65 35.14 36.75C39.28 38.33 45.61 37.99 49.93 37.25C49.93 34.63 49.93 32.01 49.93 29.4Z" fill="currentColor" fill-rule="evenodd" stroke="currentColor" stroke-width="0.25" stroke-linejoin="round"/>
</svg>