<?xml version="1.0" encoding="UTF-8"?>
<svg version="1.1" xmlns="http://www.w3.org/2000/svg" width="256" height="256" viewBox="0 0 256 256">
<path d="M0 0 C2.46110178 2.15859913 4.75079072 4.39182276 7.01171875 6.7578125 C7.64335937 7.37011719 8.275 7.98242188 8.92578125 8.61328125 C21.22932721 21.32333203 24.35224759 37.49623114 24.16577148 54.49414062 C24.12431435 56.91573728 24.07419346 59.33667716 24.01171875 61.7578125 C24.61137451 61.7995459 25.21103027 61.8412793 25.82885742 61.88427734 C32.49240245 62.46266092 36.25743489 63.93899085 41.01171875 68.7578125 C44.69270459 73.69416346 46.12737197 78.42225238 46.15888977 84.49942017 C46.16962273 85.9248111 46.16962273 85.9248111 46.18057251 87.3789978 C46.18326141 88.41489044 46.18595032 89.45078308 46.1887207 90.51806641 C46.1952919 91.61449463 46.2018631 92.71092285 46.20863342 93.84057617 C46.2283553 97.47184315 46.24002747 101.10306877 46.25 104.734375 C46.25407553 105.97593731 46.25815105 107.21749962 46.26235008 108.49668503 C46.28105774 114.3924099 46.29562331 120.28812167 46.30396205 126.183869 C46.31371917 132.96891729 46.34000221 139.75363802 46.38046294 146.538571 C46.41438436 152.43106912 46.42611718 158.32345844 46.43016624 164.21604538 C46.43502804 166.71419875 46.4466303 169.21234872 46.46520424 171.71043777 C46.48963406 175.21428495 46.48862293 178.71728457 46.48168945 182.22119141 C46.50090454 183.75681229 46.50090454 183.75681229 46.52050781 185.32345581 C46.46756398 192.69781368 45.35964036 200.03302575 40.26160145 205.70493507 C35.39810132 210.18075408 30.78856132 212.00336619 24.14933777 212.02523804 C22.38939735 212.03803299 22.38939735 212.03803299 20.59390259 212.05108643 C18.67606461 212.04972687 18.67606461 212.04972687 16.71948242 212.04833984 C15.35242853 212.05432762 13.98537801 212.06113374 12.61833191 212.06869507 C8.91157934 212.08633822 5.20491915 212.09104976 1.49812865 212.09232664 C-0.82013737 212.09374989 -3.13838003 212.09802281 -5.45664024 212.10332108 C-13.55126812 212.12181663 -21.6458302 212.12999239 -29.74047852 212.12841797 C-37.27442122 212.12721708 -44.8080772 212.14831011 -52.34194738 212.1799053 C-58.81941565 212.20609779 -65.29679045 212.216784 -71.77431124 212.21550715 C-75.63892273 212.21499833 -79.50327938 212.22063647 -83.36783791 212.24186325 C-87.00494633 212.26129575 -90.64155819 212.26133645 -94.27868462 212.24682999 C-96.24044081 212.24375792 -98.20219731 212.26038374 -100.16387939 212.27770996 C-108.79687266 212.21642645 -114.42993364 211.23708572 -120.80078125 205.0078125 C-125.77616577 197.61581263 -126.43060548 191.22800478 -126.39233398 182.54345703 C-126.39919724 181.4464447 -126.40606049 180.34943237 -126.41313171 179.21917725 C-126.43136339 175.60952643 -126.42756693 172.00031178 -126.421875 168.390625 C-126.42643876 165.87010559 -126.43174491 163.34958742 -126.4377594 160.82907104 C-126.44668357 155.55186018 -126.44451088 150.27476154 -126.43432617 144.99755859 C-126.42285406 138.91942562 -126.43691274 132.84173437 -126.46372265 126.7636596 C-126.48864813 120.89033882 -126.49104098 115.01718844 -126.48460579 109.14382553 C-126.48445286 106.65685161 -126.49047344 104.16986907 -126.50289726 101.68292618 C-126.51785116 98.19860683 -126.50709635 94.71524731 -126.48999023 91.23095703 C-126.4996582 90.21349396 -126.50932617 89.19603088 -126.51928711 88.1477356 C-126.44409009 80.79637074 -125.31455299 73.47482913 -120.24780941 67.81288338 C-115.12466015 63.1182882 -110.91494066 61.6627966 -103.98828125 61.7578125 C-104.01970215 60.86811768 -104.01970215 60.86811768 -104.05175781 59.96044922 C-104.66930649 39.76504402 -102.31392941 24.16336492 -88.48828125 8.3828125 C-87.00366792 6.82632306 -85.50513727 5.28289739 -83.98828125 3.7578125 C-83.21291016 2.93023438 -83.21291016 2.93023438 -82.421875 2.0859375 C-60.4542213 -19.25079142 -23.39093255 -17.55084351 0 0 Z M-72.23828125 23.0078125 C-81.72215389 34.91534148 -81.98828125 46.39448249 -81.98828125 61.7578125 C-54.26828125 61.7578125 -26.54828125 61.7578125 2.01171875 61.7578125 C2.01171875 45.03075163 1.85841091 34.10207557 -8.98828125 21.7578125 C-19.46327127 11.78071963 -30.36963632 9.25205111 -44.42578125 9.48046875 C-55.11253555 9.92136317 -65.00776816 15.18855534 -72.23828125 23.0078125 Z M-55.98828125 122.7578125 C-59.87116433 128.15070567 -61.26014435 133.08671037 -60.98828125 139.7578125 C-59.57988255 146.38421293 -56.36294606 151.04805383 -50.86328125 155.0078125 C-45.84646251 157.63976237 -40.30111558 158.46193408 -34.74609375 157.28125 C-28.4901116 155.13296934 -23.91827768 151.78815263 -20.78125 145.80859375 C-18.69580282 140.41519588 -18.29060057 134.93512437 -20.17578125 129.4453125 C-22.90112322 123.37134408 -26.68385858 119.1955226 -32.98828125 116.7578125 C-41.82723772 114.63819325 -49.45697055 116.2265018 -55.98828125 122.7578125 Z " fill="currentColor" transform="translate(167.98828125,23.2421875)"/>
</svg>
