<?xml version="1.0" encoding="UTF-8"?>
<svg version="1.1" xmlns="http://www.w3.org/2000/svg" width="100" height="100" viewBox="0 0 100 100">
<path d="M0 0 C1.22364258 0.00612305 2.44728516 0.01224609 3.70800781 0.01855469 C12.78102095 0.17527694 20.65963354 1.10686402 29.125 4.4375 C29.92421875 4.72625 30.7234375 5.015 31.546875 5.3125 C36.96494022 7.59379062 41.13344415 11.37693397 44.125 16.4375 C45.12073688 19.71656456 45.10603259 22.15591731 44.125 25.4375 C40.17785715 32.58607141 33.61831229 35.86236465 26.125 38.4375 C24.46563986 38.80548482 22.80022131 39.15023281 21.125 39.4375 C21.125 36.7975 21.125 34.1575 21.125 31.4375 C21.71667969 31.18355469 22.30835937 30.92960937 22.91796875 30.66796875 C30.81948762 27.81798509 30.81948762 27.81798509 36.25 22.0625 C36.35304481 19.2725587 36.35304481 19.2725587 34.3125 16.875 C22.88695872 6.86584813 4.31655669 7.53846128 -9.875 8.4375 C-18.34992856 9.3310416 -26.75691166 11.61367154 -33.875 16.4375 C-36.1401987 19.18782753 -36.1401987 19.18782753 -35.7421875 21.9609375 C-34.397489 25.8012026 -32.03602085 26.53707766 -28.54296875 28.30859375 C-24.10555865 30.18620944 -19.55635895 31.33923397 -14.875 32.4375 C-13.31214073 32.83191243 -11.74959623 33.22757623 -10.1875 33.625 C-9.094375 33.893125 -8.00125 34.16125 -6.875 34.4375 C-6.875 31.4675 -6.875 28.4975 -6.875 25.4375 C-2.33428635 26.90333335 0.88766969 29.48281733 4.4375 32.5625 C4.98728516 33.03042969 5.53707031 33.49835937 6.10351562 33.98046875 C7.44896409 35.12702483 8.787679 36.28147451 10.125 37.4375 C7.16255201 41.47589762 3.96721929 44.29029144 -0.0625 47.25 C-0.60841797 47.65669922 -1.15433594 48.06339844 -1.71679688 48.48242188 C-5.72477679 51.4375 -5.72477679 51.4375 -6.875 51.4375 C-6.875 48.1375 -6.875 44.8375 -6.875 41.4375 C-7.96554688 41.39882812 -7.96554688 41.39882812 -9.078125 41.359375 C-21.18189333 40.67659832 -33.11355343 37.522162 -41.875 28.6875 C-44.1015762 25.06931367 -44.74474384 22.93428521 -44.4765625 18.7421875 C-43.0665501 13.34019193 -39.14086157 9.96259913 -34.640625 6.93359375 C-23.90779698 1.05859802 -12.03150368 -0.10300376 0 0 Z " fill="currentColor" transform="translate(49.875,27.5625)"/>
</svg>
