<?xml version="1.0" encoding="UTF-8"?>
<svg version="1.1" xmlns="http://www.w3.org/2000/svg" width="100" height="100" viewBox="0 0 100 100">
<path d="M0 0 C3.90853023 1.86929706 7.42798546 4.09031777 11.01953125 6.50390625 C12.51588611 7.49636295 14.01331071 8.48720839 15.51171875 9.4765625 C16.27323242 9.97945801 17.03474609 10.48235352 17.81933594 11.00048828 C20.1136024 12.48390837 22.43448976 13.90728503 24.77734375 15.3125 C25.51098145 15.75529297 26.24461914 16.19808594 27.00048828 16.65429688 C28.40460843 17.49721665 29.81429945 18.3309413 31.22998047 19.15429688 C35.94611 22.00730867 35.94611 22.00730867 36.9453125 24.50805664 C37.01105469 25.16668701 37.07679687 25.82531738 37.14453125 26.50390625 C35.33203125 28.62890625 35.33203125 28.62890625 33.14453125 30.50390625 C32.48453125 31.16390625 31.82453125 31.82390625 31.14453125 32.50390625 C31.94890625 32.91640625 32.75328125 33.32890625 33.58203125 33.75390625 C36.14453125 35.50390625 36.14453125 35.50390625 37.20703125 37.44140625 C37.14453125 39.50390625 37.14453125 39.50390625 35.33203125 41.69140625 C33.14453125 43.50390625 33.14453125 43.50390625 31.14453125 44.50390625 C31.94890625 45.08140625 32.75328125 45.65890625 33.58203125 46.25390625 C36.14453125 48.50390625 36.14453125 48.50390625 37.20703125 50.50390625 C37.14453125 52.50390625 37.14453125 52.50390625 35.42358398 54.44433594 C33.24005291 56.41758373 31.12616009 57.92867548 28.6171875 59.45703125 C27.31406616 60.25741821 27.31406616 60.25741821 25.98461914 61.07397461 C25.06801514 61.62835205 24.15141113 62.18272949 23.20703125 62.75390625 C21.31087524 63.90571896 19.41504136 65.05806216 17.51953125 66.2109375 C16.59914062 66.76990723 15.67875 67.32887695 14.73046875 67.90478516 C12.48152198 69.29551413 10.27496868 70.72637487 8.08203125 72.203125 C7.5005835 72.58758789 6.91913574 72.97205078 6.32006836 73.36816406 C4.8169197 74.36829143 3.32590297 75.38658656 1.8359375 76.40625 C-0.85546875 77.50390625 -0.85546875 77.50390625 -3.7109375 77.0078125 C-7.61946773 75.13851544 -11.13892296 72.91749473 -14.73046875 70.50390625 C-16.22682361 69.51144955 -17.72424821 68.52060411 -19.22265625 67.53125 C-19.98416992 67.02835449 -20.74568359 66.52545898 -21.53027344 66.00732422 C-23.8245399 64.52390413 -26.14542726 63.10052747 -28.48828125 61.6953125 C-29.22191895 61.25251953 -29.95555664 60.80972656 -30.71142578 60.35351562 C-32.11554593 59.51059585 -33.52523695 58.6768712 -34.94091797 57.85351562 C-39.6570475 55.00050383 -39.6570475 55.00050383 -40.65625 52.49975586 C-40.72199219 51.84112549 -40.78773437 51.18249512 -40.85546875 50.50390625 C-39.04296875 48.37890625 -39.04296875 48.37890625 -36.85546875 46.50390625 C-36.19546875 45.84390625 -35.53546875 45.18390625 -34.85546875 44.50390625 C-36.06203125 43.88515625 -36.06203125 43.88515625 -37.29296875 43.25390625 C-39.85546875 41.50390625 -39.85546875 41.50390625 -40.91796875 39.56640625 C-40.85546875 37.50390625 -40.85546875 37.50390625 -39.04296875 35.37890625 C-37.96015625 34.45078125 -37.96015625 34.45078125 -36.85546875 33.50390625 C-36.19546875 32.84390625 -35.53546875 32.18390625 -34.85546875 31.50390625 C-35.65984375 31.09140625 -36.46421875 30.67890625 -37.29296875 30.25390625 C-39.85546875 28.50390625 -39.85546875 28.50390625 -40.91796875 26.56640625 C-40.85546875 24.50390625 -40.85546875 24.50390625 -39.13452148 22.55957031 C-36.95076458 20.58986136 -34.83530753 19.0780466 -32.328125 17.55078125 C-31.45937744 17.01718994 -30.59062988 16.48359863 -29.69555664 15.93383789 C-28.77895264 15.37946045 -27.86234863 14.82508301 -26.91796875 14.25390625 C-25.02181274 13.10209354 -23.12597886 11.94975034 -21.23046875 10.796875 C-20.31007813 10.23790527 -19.3896875 9.67893555 -18.44140625 9.10302734 C-16.19245948 7.71229837 -13.98590618 6.28143763 -11.79296875 4.8046875 C-11.211521 4.42022461 -10.63007324 4.03576172 -10.03100586 3.63964844 C-8.5278572 2.63952107 -7.03684047 1.62122594 -5.546875 0.6015625 C-2.85546875 -0.49609375 -2.85546875 -0.49609375 0 0 Z M-7.68359375 10.734375 C-8.40160156 11.20810547 -9.11960937 11.68183594 -9.859375 12.16992188 C-10.60058594 12.67201172 -11.34179688 13.17410156 -12.10546875 13.69140625 C-13.56860847 14.66466704 -15.03214873 15.63732594 -16.49609375 16.609375 C-17.21216797 17.08810059 -17.92824219 17.56682617 -18.66601562 18.06005859 C-22.02198475 20.27317204 -25.43389387 22.39408951 -28.85546875 24.50390625 C-27.69203263 27.99421461 -27.08321269 28.260247 -24.03125 30.0625 C-23.24943359 30.53107422 -22.46761719 30.99964844 -21.66210938 31.48242188 C-20.42750977 32.20461914 -20.42750977 32.20461914 -19.16796875 32.94140625 C-17.5592489 33.89734964 -15.95116307 34.85436089 -14.34375 35.8125 C-13.5698291 36.26608887 -12.7959082 36.71967773 -11.99853516 37.18701172 C-10.11915508 38.34187343 -8.40301087 39.5828293 -6.6484375 40.9140625 C-3.97880153 42.72302584 -3.97880153 42.72302584 -1.01171875 42.5859375 C3.34402672 41.09269307 6.85140084 38.76793508 10.64453125 36.19140625 C11.74474609 35.46147461 11.74474609 35.46147461 12.8671875 34.71679688 C14.29983756 33.76468686 15.72839241 32.8063797 17.15234375 31.84130859 C18.4271619 30.98549317 19.71288258 30.14556549 21.01171875 29.32666016 C22.42136552 28.43446295 23.78860175 27.47579876 25.14453125 26.50390625 C25.14453125 25.84390625 25.14453125 25.18390625 25.14453125 24.50390625 C23.43389381 23.14681085 23.43389381 23.14681085 21.19921875 21.82421875 C20.3690625 21.30730469 19.53890625 20.79039063 18.68359375 20.2578125 C17.80445313 19.72027344 16.9253125 19.18273437 16.01953125 18.62890625 C14.30820575 17.569637 12.59725984 16.50975422 10.88671875 15.44921875 C9.65840332 14.69560059 9.65840332 14.69560059 8.40527344 13.92675781 C6.47850668 12.71410158 4.62883979 11.44359092 2.77734375 10.12109375 C-1.32913115 7.59871896 -3.90700671 8.20413771 -7.68359375 10.734375 Z M-27.85546875 36.50390625 C-27.85546875 37.82390625 -27.85546875 39.14390625 -27.85546875 40.50390625 C-26.28977308 42.00880157 -26.28977308 42.00880157 -24.12890625 43.16015625 C-22.95134766 43.85818359 -22.95134766 43.85818359 -21.75 44.5703125 C-20.91855469 45.04339844 -20.08710938 45.51648437 -19.23046875 46.00390625 C-17.6126997 46.95083008 -15.99550066 47.89872847 -14.37890625 48.84765625 C-13.59999023 49.29496094 -12.82107422 49.74226563 -12.01855469 50.203125 C-10.11160135 51.34987978 -8.36338517 52.58184365 -6.58203125 53.91015625 C-4.03071758 55.76241792 -4.03071758 55.76241792 -1.44848633 55.2512207 C1.15857014 54.4998602 3.06405582 53.57208267 5.359375 52.140625 C6.12830078 51.66560547 6.89722656 51.19058594 7.68945312 50.70117188 C8.47900391 50.20294922 9.26855469 49.70472656 10.08203125 49.19140625 C10.86771484 48.70478516 11.65339844 48.21816406 12.46289062 47.71679688 C16.74324426 45.05545566 20.96851198 42.32590322 25.14453125 39.50390625 C24.64953125 38.01890625 24.64953125 38.01890625 24.14453125 36.50390625 C20.67415634 37.78774657 17.73886416 39.28978765 14.67578125 41.359375 C13.85722656 41.89884766 13.03867188 42.43832031 12.1953125 42.99414062 C10.48936767 44.12926012 8.78884315 45.27256654 7.09375 46.42382812 C6.27519531 46.95943359 5.45664062 47.49503906 4.61328125 48.046875 C3.87529297 48.5421167 3.13730469 49.0373584 2.37695312 49.54760742 C-0.51404876 50.78602107 -1.89081958 50.46456437 -4.85546875 49.50390625 C-6.99609375 48.41235352 -6.99609375 48.41235352 -9.10546875 47.0703125 C-9.87890625 46.58626953 -10.65234375 46.10222656 -11.44921875 45.60351562 C-12.24328125 45.09626953 -13.03734375 44.58902344 -13.85546875 44.06640625 C-20.56050216 39.70969152 -20.56050216 39.70969152 -27.85546875 36.50390625 Z M-27.85546875 49.50390625 C-28.18546875 50.49390625 -28.51546875 51.48390625 -28.85546875 52.50390625 C-28.31132324 52.84647461 -27.76717773 53.18904297 -27.20654297 53.54199219 C-24.7140061 55.11181873 -22.2222325 56.68285286 -19.73046875 58.25390625 C-18.4465625 59.06214844 -18.4465625 59.06214844 -17.13671875 59.88671875 C-16.29882812 60.41523437 -15.4609375 60.94375 -14.59765625 61.48828125 C-13.77749023 62.00197266 -12.95732422 62.51566406 -12.11230469 63.04492188 C-10.19462499 64.28465077 -8.3808221 65.59475869 -6.55078125 66.95703125 C-4.03658685 68.73912729 -4.03658685 68.73912729 -1.5456543 68.31176758 C1.65727027 67.34993099 4.06111219 65.92062747 6.8828125 64.125 C7.94951172 63.45146484 9.01621094 62.77792969 10.11523438 62.08398438 C11.21802734 61.37693359 12.32082031 60.66988281 13.45703125 59.94140625 C14.59004853 59.22260338 15.72350791 58.50449687 16.85742188 57.78710938 C19.62421755 56.03284318 22.3863003 54.27159651 25.14453125 52.50390625 C24.64953125 51.01890625 24.64953125 51.01890625 24.14453125 49.50390625 C20.63379033 50.80593371 17.62468366 52.34948532 14.4921875 54.39453125 C13.63302734 54.93851563 12.77386719 55.4825 11.88867188 56.04296875 C10.09655639 57.18637237 8.31265129 58.34274456 6.53710938 59.51171875 C0.03994062 63.58035776 0.03994062 63.58035776 -3.875 63.24609375 C-8.19016286 60.72373119 -12.42595334 58.12071925 -16.60546875 55.37890625 C-18.30597324 54.26811333 -20.00897681 53.16113373 -21.71484375 52.05859375 C-22.46217773 51.56858887 -23.20951172 51.07858398 -23.97949219 50.57373047 C-25.78509579 49.33877827 -25.78509579 49.33877827 -27.85546875 49.50390625 Z " fill="currentColor" transform="translate(51.85546875,11.49609375)"/>
</svg>
