<?xml version="1.0" encoding="UTF-8"?>
<svg version="1.1" xmlns="http://www.w3.org/2000/svg" width="100" height="100" viewBox="0 0 100 100">
<path d="M0 0 C2.64 0 5.28 0 8 0 C8.33 5.94 8.66 11.88 9 18 C11.97 15.525 11.97 15.525 15 13 C16.32 14.32 17.64 15.64 19 17 C17.34136495 21.32504836 14.128959 24.09418825 10.875 27.25 C10.31167969 27.80429688 9.74835937 28.35859375 9.16796875 28.9296875 C7.78313972 30.29104485 6.39216796 31.64614859 5 33 C0.67495164 31.34136495 -2.09418825 28.128959 -5.25 24.875 C-5.80429687 24.31167969 -6.35859375 23.74835938 -6.9296875 23.16796875 C-8.29104485 21.78313972 -9.64614859 20.39216796 -11 19 C-9.63016497 15.83884224 -9.0109362 15.0072908 -6 13 C-4.35 14.65 -2.7 16.3 -1 18 C-0.505 9.09 -0.505 9.09 0 0 Z " fill="currentColor" transform="translate(46,59)"/>
<path d="M0 0 C4.32504836 1.65863505 7.09418825 4.871041 10.25 8.125 C10.80429688 8.68832031 11.35859375 9.25164063 11.9296875 9.83203125 C13.29104485 11.21686028 14.64614859 12.60783204 16 14 C14.34136495 18.32504836 11.128959 21.09418825 7.875 24.25 C7.31167969 24.80429687 6.74835938 25.35859375 6.16796875 25.9296875 C4.78313972 27.29104485 3.39216796 28.64614859 2 30 C-1.16115776 28.63016497 -1.9927092 28.0109362 -4 25 C-2.35 23.35 -0.7 21.7 1 20 C-4.94 19.67 -10.88 19.34 -17 19 C-17 16.36 -17 13.72 -17 11 C-11.06 10.67 -5.12 10.34 1 10 C-0.65 8.02 -2.3 6.04 -4 4 C-2.68 2.68 -1.36 1.36 0 0 Z " fill="currentColor" transform="translate(76,35)"/>
<path d="M0 0 C3.16115776 1.36983503 3.9927092 1.9890638 6 5 C4.35 6.65 2.7 8.3 1 10 C6.94 10.33 12.88 10.66 19 11 C19 13.64 19 16.28 19 19 C13.06 19.33 7.12 19.66 1 20 C2.65 21.98 4.3 23.96 6 26 C4.68 27.32 3.36 28.64 2 30 C-2.32504836 28.34136495 -5.09418825 25.128959 -8.25 21.875 C-8.80429688 21.31167969 -9.35859375 20.74835937 -9.9296875 20.16796875 C-11.29104485 18.78313972 -12.64614859 17.39216796 -14 16 C-12.34136495 11.67495164 -9.128959 8.90581175 -5.875 5.75 C-5.31167969 5.19570313 -4.74835937 4.64140625 -4.16796875 4.0703125 C-2.78313972 2.70895515 -1.39216796 1.35385141 0 0 Z " fill="currentColor" transform="translate(22,35)"/>
<path d="M0 0 C4.32504836 1.65863505 7.09418825 4.871041 10.25 8.125 C10.80429687 8.68832031 11.35859375 9.25164063 11.9296875 9.83203125 C13.29104485 11.21686028 14.64614859 12.60783204 16 14 C14.63016497 17.16115776 14.0109362 17.9927092 11 20 C9.35 18.35 7.7 16.7 6 15 C5.67 19.95 5.34 24.9 5 30 C2.36 30 -0.28 30 -3 30 C-3.33 25.05 -3.66 20.1 -4 15 C-5.98 16.65 -7.96 18.3 -10 20 C-11.32 18.68 -12.64 17.36 -14 16 C-12.34136495 11.67495164 -9.128959 8.90581175 -5.875 5.75 C-5.31167969 5.19570312 -4.74835937 4.64140625 -4.16796875 4.0703125 C-2.78313972 2.70895515 -1.39216796 1.35385141 0 0 Z " fill="currentColor" transform="translate(49,8)"/>
</svg>
