<?xml version="1.0" standalone="no"?>
<!DOCTYPE svg PUBLIC "-//W3C//DTD SVG 20010904//EN"
 "http://www.w3.org/TR/2001/REC-SVG-20010904/DTD/svg10.dtd">
<svg version="1.0" xmlns="http://www.w3.org/2000/svg"
 width="100.000000pt" height="100.000000pt" viewBox="0 0 100.000000 100.000000"
 preserveAspectRatio="xMidYMid meet">

<g transform="translate(0.000000,100.000000) scale(0.100000,-0.100000)"
fill="#000000" stroke="none">
<path d="M488 653 c-147 -147 -268 -270 -268 -273 0 -3 14 -11 30 -17 22 -8
32 -20 36 -41 5 -23 13 -31 36 -36 21 -4 33 -14 41 -36 6 -16 14 -30 17 -30
12 0 540 537 540 550 0 7 -31 44 -68 82 -38 37 -75 68 -82 68 -8 0 -135 -120
-282 -267z m307 137 c18 -20 18 -21 -3 -43 l-22 -21 -22 21 c-21 22 -21 23 -3
43 10 11 21 20 25 20 4 0 15 -9 25 -20z m-243 -283 c-114 -114 -163 -156 -174
-152 -43 17 -29 38 129 197 l157 157 23 -21 24 -22 -159 -159z"/>
<path d="M142 221 c-17 -100 -20 -94 42 -87 117 15 115 12 38 89 l-69 68 -11
-70z"/>
</g>
</svg>
