<?xml version="1.0" encoding="UTF-8"?>
<svg xmlns="http://www.w3.org/2000/svg" viewBox="0 0 100 100" width="100" height="100">
<path d="M79.75 20.09C83.74 16.46 87.74 12.84 91.73 9.21C91.73 18.66 91.73 28.1 91.73 37.54C82.33 37.54 72.92 37.54 63.51 37.54C66.7 33.78 69.88 30.01 73.06 26.25C62.12 12.23 38.24 15.08 26.58 26.33C16.97 35.61 14.11 50.74 19.29 62.99C28.22 84.1 57.15 90.07 73.42 73.67C78.13 68.91 81.54 62.72 82.8 56.14C83.18 54.11 82.95 52.04 83.52 50.05C86.15 50.05 88.77 50.05 91.4 50.05C91.86 53.47 91.12 57.1 90.23 60.41C85.38 78.47 69.11 91.44 50.25 91.72C33.49 91.97 17.47 80.98 11.29 65.48C0.59 38.68 21.17 7.89 50.25 8.27C57.71 8.37 65.07 10.54 71.46 14.3C74.21 15.92 76.77 19.24 79.75 20.09Z" fill="currentColor" fill-rule="evenodd" stroke="currentColor" stroke-width="0.25" stroke-linejoin="round"/>
</svg>