<?xml version="1.0" standalone="no"?>
<!DOCTYPE svg PUBLIC "-//W3C//DTD SVG 20010904//EN"
 "http://www.w3.org/TR/2001/REC-SVG-20010904/DTD/svg10.dtd">
<svg version="1.0" xmlns="http://www.w3.org/2000/svg"
 width="100.000000pt" height="100.000000pt" viewBox="0 0 100.000000 100.000000"
 preserveAspectRatio="xMidYMid meet">

<g transform="translate(0.000000,100.000000) scale(0.100000,-0.100000)"
fill="currentColor" stroke="none">
<path d="M422 909 c-70 -13 -148 -54 -202 -105 -73 -69 -77 -78 -37 -102 l34
-19 40 43 c23 23 65 55 95 71 47 24 64 28 144 28 75 0 99 -4 142 -24 l52 -25
-32 -33 -32 -33 102 0 102 0 0 102 0 102 -39 -38 -39 -38 -64 31 c-95 46 -174
58 -266 40z"/>
<path d="M340 545 c-24 -85 -42 -157 -39 -159 6 -5 292 -86 305 -86 10 0 101
306 93 314 -6 6 -286 86 -301 86 -10 0 -28 -49 -58 -155z"/>
<path d="M743 274 c-23 -23 -65 -55 -95 -71 -47 -24 -64 -28 -144 -28 -75 0
-99 4 -142 24 l-52 25 32 33 32 33 -102 0 -102 0 0 -102 0 -102 39 38 39 38
64 -31 c162 -80 340 -55 468 65 73 69 77 78 37 102 l-34 19 -40 -43z"/>
</g>
</svg>
