<?xml version="1.0" standalone="no"?>
<!DOCTYPE svg PUBLIC "-//W3C//DTD SVG 20010904//EN"
 "http://www.w3.org/TR/2001/REC-SVG-20010904/DTD/svg10.dtd">
<svg version="1.0" xmlns="http://www.w3.org/2000/svg"
 width="100.000000pt" height="100.000000pt" viewBox="0 0 100.000000 100.000000"
 preserveAspectRatio="xMidYMid meet">

<g transform="translate(0.000000,100.000000) scale(0.100000,-0.100000)"
fill="currentColor" stroke="none">
<path d="M122 833 c3 -37 4 -38 46 -41 l42 -3 0 40 0 41 -46 0 -45 0 3 -37z"/>
<path d="M290 829 l0 -40 43 3 c41 3 42 4 45 41 l3 37 -45 0 -46 0 0 -41z"/>
<path d="M460 830 l0 -40 40 0 40 0 0 40 0 40 -40 0 -40 0 0 -40z"/>
<path d="M622 833 c3 -37 4 -38 46 -41 l42 -3 0 40 0 41 -46 0 -45 0 3 -37z"/>
<path d="M790 829 l0 -40 43 3 c41 3 42 4 45 41 l3 37 -45 0 -46 0 0 -41z"/>
<path d="M124 696 c-3 -8 -4 -27 -2 -43 3 -26 7 -28 43 -28 40 0 40 0 43 43
l3 42 -41 0 c-26 0 -43 -5 -46 -14z"/>
<path d="M520 665 l44 -45 -39 -40 -39 -40 -183 0 -183 0 2 -207 3 -208 208
-3 207 -2 0 183 0 183 40 39 40 39 45 -44 45 -44 0 117 0 117 -117 0 -117 0
44 -45z"/>
<path d="M792 668 l3 -43 40 0 40 0 0 40 0 40 -43 3 -43 3 3 -43z"/>
<path d="M790 500 l0 -40 45 0 45 0 0 40 0 40 -45 0 -45 0 0 -40z"/>
<path d="M790 329 l0 -40 43 3 c41 3 42 4 45 41 l3 37 -45 0 -46 0 0 -41z"/>
<path d="M624 196 c-3 -8 -4 -27 -2 -43 3 -26 7 -28 43 -28 40 0 40 0 43 43
l3 42 -41 0 c-26 0 -43 -5 -46 -14z"/>
<path d="M792 168 l3 -43 40 0 40 0 0 40 0 40 -43 3 -43 3 3 -43z"/>
</g>
</svg>
