<?xml version="1.0" standalone="no"?>
<!DOCTYPE svg PUBLIC "-//W3C//DTD SVG 20010904//EN"
 "http://www.w3.org/TR/2001/REC-SVG-20010904/DTD/svg10.dtd">
<svg version="1.0" xmlns="http://www.w3.org/2000/svg"
 width="250.000000pt" height="250.000000pt" viewBox="0 0 250.000000 250.000000"
 preserveAspectRatio="xMidYMid meet">

<g transform="translate(0.000000,250.000000) scale(0.100000,-0.100000)"
fill="currentColor" stroke="none">
<path d="M716 2234 c-14 -14 -16 -105 -16 -858 0 -804 1 -844 18 -859 10 -10
26 -17 36 -17 9 0 100 79 203 176 102 96 189 172 193 167 3 -4 69 -152 144
-328 76 -176 144 -330 152 -342 8 -13 23 -23 33 -23 18 0 235 94 258 113 7 5
13 20 13 33 0 13 -68 173 -151 354 -83 182 -150 332 -148 334 2 1 117 13 256
25 139 11 259 24 268 27 19 8 30 47 18 67 -20 35 -1225 1147 -1243 1147 -10 0
-26 -7 -34 -16z m643 -669 c258 -241 469 -440 467 -442 -1 -2 -108 -12 -237
-24 -236 -21 -269 -29 -269 -65 0 -7 72 -170 159 -361 l160 -348 -61 -28 c-34
-15 -65 -24 -69 -20 -3 5 -71 157 -149 338 -78 182 -148 340 -156 353 -25 39
-52 27 -161 -75 -58 -54 -136 -126 -174 -161 l-69 -64 0 707 0 707 44 -39 c24
-21 256 -236 515 -478z"/>
</g>
</svg>
