<?xml version="1.0" encoding="UTF-8"?>
<svg version="1.1" xmlns="http://www.w3.org/2000/svg" width="100" height="100" viewBox="0 0 100 100">
<path d="M0 0 C0.6946637 -0.0049649 1.38932739 -0.00992981 2.1050415 -0.01504517 C4.40223177 -0.02964548 6.69935299 -0.03646503 8.99658203 -0.04199219 C10.59457399 -0.04774518 12.19256593 -0.05350289 13.79055786 -0.05926514 C17.14129966 -0.06976891 20.4920175 -0.07561572 23.84277344 -0.07910156 C28.13241169 -0.08458651 32.42173257 -0.10861699 36.71127129 -0.13707352 C40.01243002 -0.15571363 43.31351248 -0.16090621 46.61471939 -0.16243744 C48.19594178 -0.16546115 49.77716292 -0.17348023 51.35833359 -0.18662262 C53.57246691 -0.20371315 55.78582714 -0.20179603 58 -0.1953125 C59.25892059 -0.19895813 60.51784119 -0.20260376 61.81491089 -0.20635986 C65.39531663 0.19061687 67.2770447 1.00160871 70.12939453 3.16113281 C71.48084107 5.86402589 71.24914618 7.96183088 71.24291992 10.98779297 C71.24280663 12.81946518 71.24280663 12.81946518 71.24269104 14.68814087 C71.23758405 16.02549276 71.23236805 17.36284424 71.22705078 18.70019531 C71.22518593 20.0649714 71.22376234 21.42974815 71.22276306 22.79452515 C71.21894316 26.38828374 71.20911736 29.98200199 71.19805908 33.57574463 C71.18783364 37.24222264 71.18326301 40.90870716 71.17822266 44.57519531 C71.16749463 51.77052622 71.15042452 58.96582386 71.12939453 66.16113281 C67.2461415 64.2926008 64.74409192 62.70291271 62.12939453 59.16113281 C61.43834701 55.34778071 61.54732994 51.59966841 61.64111328 47.73535156 C61.64614868 46.75747681 61.65118408 45.77960205 61.65637207 44.77209473 C61.6824681 41.13064113 61.7522754 37.48960654 61.81689453 33.84863281 C61.92001953 25.70175781 62.02314453 17.55488281 62.12939453 9.16113281 C40.34939453 9.16113281 18.56939453 9.16113281 -3.87060547 9.16113281 C-3.87060547 28.30113281 -3.87060547 47.44113281 -3.87060547 67.16113281 C3.05939453 67.16113281 9.98939453 67.16113281 17.12939453 67.16113281 C9.43769222 76.13478551 9.43769222 76.13478551 5.60986328 76.46191406 C4.17894328 76.47655603 2.74787526 76.48000405 1.31689453 76.47363281 C0.6046875 76.48974609 -0.10751953 76.50585938 -0.84130859 76.52246094 C-5.36865593 76.52664905 -8.28475641 75.96834036 -11.87060547 73.16113281 C-13.26616943 70.37000488 -13.01329359 68.06163965 -13.03173828 64.93896484 C-13.04134583 63.63065704 -13.05095337 62.32234924 -13.06085205 60.97439575 C-13.06569977 59.53924737 -13.06997866 58.10409698 -13.07373047 56.66894531 C-13.07948185 55.20164996 -13.08523958 53.73435463 -13.09100342 52.26705933 C-13.10151408 49.18861541 -13.10735628 46.11019762 -13.11083984 43.03173828 C-13.11632411 39.08835038 -13.14035004 35.14530786 -13.1688118 31.20202827 C-13.18744207 28.17026768 -13.19264398 25.1385902 -13.19417572 22.10677719 C-13.19720203 20.65311673 -13.2052299 19.19945773 -13.2183609 17.74585342 C-13.23542721 15.71133508 -13.23169549 13.67667446 -13.22705078 11.64208984 C-13.23069641 10.48452179 -13.23434204 9.32695374 -13.23809814 8.13430786 C-12.83114154 4.84185256 -12.20372097 3.4833451 -9.87060547 1.16113281 C-6.39681426 0.00320241 -3.6659023 0.0199079 0 0 Z " fill="currentColor" transform="translate(20.87060546875,11.8388671875)"/>
<path d="M0 0 C1.50559539 1.96382007 2.89131683 3.78263366 4 6 C8.455 5.505 8.455 5.505 13 5 C12.67 7.97 12.34 10.94 12 14 C14.475 15.485 14.475 15.485 17 17 C15.33333333 18.66666667 13.66666667 20.33333333 12 22 C20.58 30.58 29.16 39.16 38 48 C36.38262276 51.23475448 35.52370777 52.70572021 33 55 C28.99482604 53.39626852 26.3228902 50.57886014 23.359375 47.5546875 C22.83232971 47.02481232 22.30528442 46.49493713 21.76226807 45.94900513 C20.08674325 44.26232175 18.41832278 42.56880436 16.75 40.875 C15.61244149 39.72740612 14.47442564 38.58026539 13.3359375 37.43359375 C10.55196535 34.62761863 7.7743424 31.81549536 5 29 C4.54625 29.61875 4.0925 30.2375 3.625 30.875 C2 33 2 33 0 35 C-3 30.25 -3 30.25 -3 28 C-3.9075 28.350625 -4.815 28.70125 -5.75 29.0625 C-9 30 -9 30 -13 29 C-12.01 26.36 -11.02 23.72 -10 21 C-11.98 20.34 -13.96 19.68 -16 19 C-16 18.01 -16 17.02 -16 16 C-14.02 15.34 -12.04 14.68 -10 14 C-10.99 11.03 -11.98 8.06 -13 5 C-9.53058454 5.45822468 -6.32604951 5.89131683 -3 7 C-2.690625 6.030625 -2.38125 5.06125 -2.0625 4.0625 C-1 1 -1 1 0 0 Z " fill="currentColor" transform="translate(58,45)"/>
<path d="M0 0 C1.5 1.3125 1.5 1.3125 3 3 C3 3.99 3 4.98 3 6 C4.98 6.66 6.96 7.32 9 8 C9 8.66 9 9.32 9 10 C8.236875 10.433125 7.47375 10.86625 6.6875 11.3125 C3.68071451 13.20048159 2.60145073 14.88138542 1 18 C-0.50559539 16.03617993 -1.89131683 14.21736634 -3 12 C-4.64363134 11.27840576 -6.31050386 10.60648579 -8 10 C-8 9.34 -8 8.68 -8 8 C-7.236875 7.79375 -6.47375 7.5875 -5.6875 7.375 C-2.17770897 5.57929296 -1.47400219 3.56863688 0 0 Z " fill="currentColor" transform="translate(43,80)"/>
<path d="M0 0 C2.97 0 5.94 0 9 0 C9 3.3 9 6.6 9 10 C6.03 10 3.06 10 0 10 C0 6.7 0 3.4 0 0 Z " fill="currentColor" transform="translate(25,45)"/>
<path d="M0 0 C2.97 0 5.94 0 9 0 C9 2.97 9 5.94 9 9 C6.03 9 3.06 9 0 9 C0 6.03 0 3.06 0 0 Z " fill="currentColor" transform="translate(25,62)"/>
<path d="M0 0 C2.97 0 5.94 0 9 0 C9 2.97 9 5.94 9 9 C6.03 9 3.06 9 0 9 C0 6.03 0 3.06 0 0 Z " fill="currentColor" transform="translate(66,29)"/>
<path d="M0 0 C2.97 0 5.94 0 9 0 C9 2.97 9 5.94 9 9 C6.03 9 3.06 9 0 9 C0 6.03 0 3.06 0 0 Z " fill="currentColor" transform="translate(25,29)"/>
</svg>
