<?xml version="1.0" encoding="UTF-8"?>
<svg version="1.1" xmlns="http://www.w3.org/2000/svg" width="100" height="100" viewBox="0 0 100 100">
<path d="M0 0 C6.43602848 5.97733603 10.70155783 14.12344561 11.08641052 22.99102783 C11.11555031 25.40741628 11.11234438 27.82176104 11.09765625 30.23828125 C11.0962413 31.11904831 11.09482635 31.99981537 11.09336853 32.90727234 C11.08778937 35.70905003 11.07524071 38.51074662 11.0625 41.3125 C11.05748231 43.21679572 11.05291987 45.12109269 11.04882812 47.02539062 C11.03867941 51.68364983 11.01909995 56.34173455 11 61 C2.42 61 -6.16 61 -15 61 C-15.04898438 58.37546875 -15.09796875 55.7509375 -15.1484375 53.046875 C-15.20246559 50.50173295 -15.25976587 47.95668413 -15.31738281 45.41162109 C-15.35563771 43.6444393 -15.3904967 41.87718056 -15.421875 40.10986328 C-15.46760152 37.56775437 -15.52558289 35.02617352 -15.5859375 32.484375 C-15.59748871 31.69569031 -15.60903992 30.90700562 -15.62094116 30.09442139 C-15.75136541 24.73739104 -15.75136541 24.73739104 -18 20 C-20.56265486 18.07800886 -21.83198949 17.98971364 -25.0625 18.1875 C-28.05890525 19.01629294 -29.15408683 19.57116688 -31 22 C-32.60951543 25.21903085 -32.24234748 28.74838832 -32.31640625 32.2890625 C-32.33718735 33.10748627 -32.35796844 33.92591003 -32.37937927 34.76913452 C-32.44484812 37.38766966 -32.50374726 40.00630639 -32.5625 42.625 C-32.60568776 44.39844807 -32.64930214 46.17188581 -32.69335938 47.9453125 C-32.80133099 52.29677232 -32.90042378 56.64830747 -33 61 C-41.58 61 -50.16 61 -59 61 C-59.06924547 55.48600861 -59.12886477 49.97355401 -59.16479492 44.45947266 C-59.17978865 42.58767557 -59.2001905 40.71591306 -59.22631836 38.84423828 C-59.42948826 23.90527466 -59.05701113 11.75203357 -48.37109375 0.24609375 C-34.37175605 -12.71384997 -14.34570393 -11.70234965 0 0 Z M-44.86328125 7.59375 C-51.56180908 15.13724752 -52.16970018 23.14452227 -52.0625 32.875 C-52.05798828 33.65875 -52.05347656 34.4425 -52.04882812 35.25 C-52.03714093 37.16670014 -52.01920908 39.08336048 -52 41 C-48.04 41 -44.08 41 -40 41 C-39.96261719 39.61425781 -39.92523438 38.22851562 -39.88671875 36.80078125 C-39.82104606 34.97132769 -39.75459917 33.1419018 -39.6875 31.3125 C-39.65366211 29.94448242 -39.65366211 29.94448242 -39.61914062 28.54882812 C-39.41751697 23.50823679 -39.0798296 20.18625632 -36 16 C-36 15.34 -36 14.68 -36 14 C-35.21625 13.690625 -34.4325 13.38125 -33.625 13.0625 C-31.07669872 12.07124962 -31.07669872 12.07124962 -29 11 C-23.21574582 10.46764386 -18.79856599 10.4010755 -14 14 C-13.34 14 -12.68 14 -12 14 C-11.690625 14.78375 -11.38125 15.5675 -11.0625 16.375 C-10.07124962 18.92330128 -10.07124962 18.92330128 -9 21 C-8.84876169 22.5195764 -8.75118307 24.04472502 -8.68359375 25.5703125 C-8.64169922 26.46621094 -8.59980469 27.36210938 -8.55664062 28.28515625 C-8.51732422 29.22230469 -8.47800781 30.15945312 -8.4375 31.125 C-8.39431641 32.06988281 -8.35113281 33.01476563 -8.30664062 33.98828125 C-8.2004106 36.32534172 -8.09968729 38.6626513 -8 41 C-4.04 41 -0.08 41 4 41 C4.684715 23.42435601 4.684715 23.42435601 -3 8 C-9.27836461 1.76757465 -15.1958086 -1.51453394 -24.13671875 -2.046875 C-32.97358207 -1.90220602 -38.58713338 1.52450811 -44.86328125 7.59375 Z M-52 48 C-52 49.98 -52 51.96 -52 54 C-48.04 54 -44.08 54 -40 54 C-40 52.02 -40 50.04 -40 48 C-43.96 48 -47.92 48 -52 48 Z M-8 48 C-8 49.98 -8 51.96 -8 54 C-4.04 54 -0.08 54 4 54 C4 52.02 4 50.04 4 48 C0.04 48 -3.92 48 -8 48 Z " fill="currentColor" transform="translate(74,24)"/>
</svg>
