<?xml version="1.0" encoding="UTF-8"?>
<svg version="1.1" xmlns="http://www.w3.org/2000/svg" width="100" height="100" viewBox="0 0 100 100">
<path d="M0 0 C7.74174057 8.66856866 11.4991891 18.30565567 11.6640625 29.86328125 C10.87744383 40.89050959 7.06349157 51.36190435 -1.3359375 58.86328125 C-11.82272215 66.63714582 -22.31373362 70.0102371 -35.3359375 68.23828125 C-45.37178389 66.30583329 -54.12721593 61.54076076 -60.25 53.28125 C-67.48843313 42.39381252 -69.59557412 31.65082743 -67.125 18.8203125 C-63.98431892 7.0505324 -57.25034081 -0.50827175 -47.0078125 -6.6953125 C-43.81074694 -8.42004524 -40.90743316 -9.46285164 -37.3359375 -10.13671875 C-36.1603125 -10.38421875 -34.9846875 -10.63171875 -33.7734375 -10.88671875 C-21.44188327 -12.17973609 -9.13292394 -8.37545394 0 0 Z M-55.5859375 8.55078125 C-60.61639791 15.75286118 -63.57572565 24.06231602 -62.3359375 32.86328125 C-60.50414126 42.41587156 -55.89598163 50.47774595 -48.265625 56.58203125 C-40.56504685 61.69496573 -32.50223939 63.77605465 -23.3359375 62.86328125 C-12.328468 60.19156535 -4.29243402 54.46813188 1.6640625 44.86328125 C5.90450384 36.84619685 6.84787233 28.67209615 4.5390625 19.92578125 C1.55540705 10.84933406 -4.12126924 3.14968209 -12.640625 -1.35546875 C-28.3564555 -8.56929258 -44.46839592 -5.00652008 -55.5859375 8.55078125 Z " fill="currentColor" transform="translate(78.3359375,21.13671875)"/>
<path d="M0 0 C6.56808822 5.91778246 10.15717455 12.53115568 10.9296875 21.3203125 C11.07705517 29.74706384 8.49299491 36.43198745 2.97265625 42.77734375 C-3.61048112 48.79363564 -10.10132193 51.6212448 -19.02734375 51.77734375 C-27.43138037 51.18365199 -34.14455319 48.02596468 -39.8515625 41.78125 C-45.2666013 34.8452802 -47.47481128 28.1114953 -46.8515625 19.2890625 C-45.55865437 10.8916895 -41.65121781 4.56001858 -34.96484375 -0.66015625 C-24.11773606 -8.09699903 -10.6273024 -7.88850577 0 0 Z M-36.02734375 8.77734375 C-36.86265625 9.73640625 -36.86265625 9.73640625 -37.71484375 10.71484375 C-40.86389855 15.66335843 -41.88000511 20.98766782 -41.02734375 26.77734375 C-39.23038304 32.58589781 -36.70455403 36.80171501 -32.02734375 40.77734375 C-31.38796875 41.33421875 -30.74859375 41.89109375 -30.08984375 42.46484375 C-25.14132907 45.61389855 -19.81701968 46.63000511 -14.02734375 45.77734375 C-8.21878969 43.98038304 -4.00297249 41.45455403 -0.02734375 36.77734375 C0.52953125 36.13796875 1.08640625 35.49859375 1.66015625 34.83984375 C4.80921105 29.89132907 5.82531761 24.56701968 4.97265625 18.77734375 C3.17569554 12.96878969 0.64986653 8.75297249 -4.02734375 4.77734375 C-4.66671875 4.22046875 -5.30609375 3.66359375 -5.96484375 3.08984375 C-16.49288512 -3.60981894 -28.30034358 -0.31324469 -36.02734375 8.77734375 Z " fill="currentColor" transform="translate(68.02734375,27.22265625)"/>
<path d="M0 0 C5.00867283 2.41489583 8.71573549 5.75454339 10.79296875 11.00390625 C12.24978299 16.08068316 12.11098026 19.9907332 10.1953125 24.91796875 C7.83682066 29.02606075 4.20321758 31.89839121 0 34 C-5.55531248 34.5072965 -10.41830236 34.76260422 -15.5 32.3125 C-20.77898341 27.42944034 -23.59713872 23.28704967 -24 16 C-23.18769465 9.67859808 -20.59416158 5.94386703 -15.62109375 2.09375 C-10.90018295 -1.09144283 -5.50748303 -0.51902981 0 0 Z M-14 8 C-17.33141153 11.21653527 -17.84287012 14.44323354 -18 19 C-16.49203437 23.12706383 -14.93005435 25.92580465 -11 28 C-6.94136867 29.05223775 -4.71170686 29.26004674 -0.75 27.8125 C3.3369066 25.11885701 4.6411659 23.38407437 5.875 18.625 C6.0204387 14.4072777 5.30626876 12.4991664 3 9 C-2.01999958 3.80071472 -8.2684001 4.22235461 -14 8 Z " fill="currentColor" transform="translate(56,33)"/>
<path d="M0 0 C3 0.125 3 0.125 4 1.125 C4.125 4.125 4.125 4.125 4 7.125 C3 8.125 3 8.125 0 8.25 C-3 8.125 -3 8.125 -4 7.125 C-4.125 4.125 -4.125 4.125 -4 1.125 C-3 0.125 -3 0.125 0 0 Z " fill="currentColor" transform="translate(50,45.875)"/>
</svg>
