<?xml version="1.0" standalone="no"?>
<!DOCTYPE svg PUBLIC "-//W3C//DTD SVG 20010904//EN"
 "http://www.w3.org/TR/2001/REC-SVG-20010904/DTD/svg10.dtd">
<svg version="1.0" xmlns="http://www.w3.org/2000/svg"
 width="256.000000pt" height="256.000000pt" viewBox="0 0 256.000000 256.000000"
 preserveAspectRatio="xMidYMid meet">

<g transform="translate(0.000000,256.000000) scale(0.100000,-0.100000)"
fill="currentColor" stroke="none">
<path d="M1011 2295 l-58 -55 -222 0 c-277 0 -301 -9 -301 -110 0 -33 6 -48
29 -71 l29 -29 792 0 792 0 29 29 c23 23 29 38 29 71 0 101 -24 110 -301 110
l-222 0 -58 55 -58 55 -211 0 -211 0 -58 -55z"/>
<path d="M530 1114 c0 -499 3 -708 12 -742 16 -64 86 -134 150 -150 33 -9 207
-12 591 -12 624 0 618 -1 685 75 23 27 44 63 51 90 8 30 11 260 11 739 l0 696
-750 0 -750 0 0 -696z m480 473 c14 -7 33 -28 42 -47 16 -32 18 -79 18 -528 0
-425 -2 -499 -15 -527 -36 -75 -154 -75 -190 1 -14 29 -15 95 -13 543 3 493 4
510 23 531 36 40 89 50 135 27z m640 0 c14 -7 33 -28 42 -47 16 -32 18 -79 18
-528 0 -425 -2 -499 -15 -527 -36 -75 -154 -75 -190 1 -14 29 -15 95 -13 543
3 493 4 510 23 531 36 40 89 50 135 27z"/>
</g>
</svg>
