<?xml version="1.0" standalone="no"?>
<!DOCTYPE svg PUBLIC "-//W3C//DTD SVG 20010904//EN"
 "http://www.w3.org/TR/2001/REC-SVG-20010904/DTD/svg10.dtd">
<svg version="1.0" xmlns="http://www.w3.org/2000/svg"
 width="100.000000pt" height="100.000000pt" viewBox="0 0 100.000000 100.000000"
 preserveAspectRatio="xMidYMid meet">

<g transform="translate(0.000000,100.000000) scale(0.100000,-0.100000)"
fill="currentColor" stroke="none">
<path d="M151 851 c-29 -29 -33 -79 -29 -388 l3 -283 28 -27 27 -28 320 0 320
0 27 28 28 27 0 319 0 319 -24 26 -24 26 -329 0 c-311 0 -329 -1 -347 -19z
m639 -351 l0 -290 -290 0 -290 0 0 290 0 290 290 0 290 0 0 -290z"/>
</g>
</svg>
