<?xml version="1.0" encoding="UTF-8"?>
<svg version="1.1" xmlns="http://www.w3.org/2000/svg" width="100" height="100" viewBox="0 0 100 100">
<path d="M0 0 C4.06026821 2.03013411 6.65457376 4.42395554 9.75 7.625 C10.25660156 8.140625 10.76320313 8.65625 11.28515625 9.1875 C12.52803902 10.45383339 13.76465276 11.7263144 15 13 C17.12158226 11.94652467 19.23262716 10.878426 21.33203125 9.78125 C22.15058594 9.3584375 22.96914063 8.935625 23.8125 8.5 C24.62332031 8.0771875 25.43414062 7.654375 26.26953125 7.21875 C36.31913878 2.73308827 47.94958751 2.39795 58.4375 5.625 C70.67751171 10.35183379 78.80716957 18.09382092 84.93359375 29.546875 C86 32 86 32 86 35 C84.73160474 35.50615298 83.46016898 36.00469099 82.1875 36.5 C81.47980469 36.7784375 80.77210937 37.056875 80.04296875 37.34375 C78 38 78 38 75 38 C74.68546875 37.40832031 74.3709375 36.81664062 74.046875 36.20703125 C69.03038242 26.94465187 63.94909028 21.04956009 53.8515625 17.17578125 C45.60411022 14.87757815 37.79091405 15.59385813 30 19 C28.29507173 20.2840464 26.61850712 21.60860134 25 23 C26.40765625 24.37285156 26.40765625 24.37285156 27.84375 25.7734375 C29.06276041 26.97369391 30.28149629 28.17422919 31.5 29.375 C32.12003906 29.97828125 32.74007812 30.5815625 33.37890625 31.203125 C34.25869141 32.07324219 34.25869141 32.07324219 35.15625 32.9609375 C35.70087891 33.49509277 36.24550781 34.02924805 36.80664062 34.57958984 C38 36 38 36 38 38 C25.46 38 12.92 38 0 38 C0 25.46 0 12.92 0 0 Z " fill="currentColor" transform="translate(8,29)"/>
</svg>
