<?xml version="1.0" standalone="no"?>
<!DOCTYPE svg PUBLIC "-//W3C//DTD SVG 20010904//EN"
 "http://www.w3.org/TR/2001/REC-SVG-20010904/DTD/svg10.dtd">
<svg version="1.0" xmlns="http://www.w3.org/2000/svg"
 width="100.000000pt" height="100.000000pt" viewBox="0 0 100.000000 100.000000"
 preserveAspectRatio="xMidYMid meet">

<g transform="translate(0.000000,100.000000) scale(0.100000,-0.100000)"
fill="currentColor" stroke="none">
<path d="M375 816 c-78 -25 -146 -67 -203 -124 -50 -51 -110 -137 -127 -182
-8 -23 64 -138 128 -203 41 -40 83 -70 135 -95 75 -36 80 -37 192 -37 112 0
117 1 192 37 52 25 94 55 135 95 64 65 136 180 128 203 -17 46 -77 131 -128
183 -41 41 -82 70 -135 95 -71 34 -85 37 -177 39 -63 2 -115 -2 -140 -11z
m277 -100 c31 -14 76 -44 101 -66 48 -42 107 -126 107 -152 0 -9 -20 -43 -45
-77 -144 -195 -391 -226 -568 -71 -48 42 -107 126 -107 152 0 26 87 135 137
173 107 79 260 95 375 41z"/>
<path d="M445 655 c-114 -41 -147 -185 -61 -271 89 -89 243 -48 275 74 35 127
-90 242 -214 197z m112 -97 c51 -48 15 -138 -56 -138 -47 0 -81 32 -81 79 0
72 84 109 137 59z"/>
</g>
</svg>
